<svg width="62" height="63" viewBox="0 0 62 63" fill="none" xmlns="http://www.w3.org/2000/svg">
<path d="M32.2601 18.0441C31.7343 17.5178 30.8811 17.5178 30.3544 18.0441C29.8281 18.57 29.8281 19.4236 30.3544 19.9498L40.5609 30.1563H18.4426C17.6962 30.1563 17.0907 30.7617 17.0907 31.5082C17.0907 32.2551 17.6962 32.8601 18.4426 32.8601H40.5473L30.3409 43.0665C30.0877 43.3189 29.9454 43.6622 29.9454 44.0196C29.9454 44.3774 30.0877 44.7199 30.3409 44.9727C30.5941 45.228 30.9408 45.3694 31.3007 45.3647C31.6593 45.363 32.0036 45.2225 32.2601 44.9727L44.7648 32.4685C45.0192 32.2136 45.1611 31.8676 45.1573 31.5082C45.1547 31.1496 45.0142 30.8066 44.7648 30.5488L32.2601 18.0441Z" fill="#FFFEFE"/>
<path d="M31.0146 2.44344C19.259 2.44133 8.66004 9.52223 4.16144 20.3832C-0.336318 31.2447 2.15157 43.7459 10.4667 52.056C21.8154 63.4047 40.2146 63.4047 51.563 52.056C62.9113 40.708 62.9113 22.3089 51.563 10.9601C46.1253 5.49149 38.7264 2.42481 31.0146 2.44344ZM31.0146 57.8692C16.4823 57.8692 4.65385 46.0403 4.65385 31.508C4.65385 16.9757 16.4823 5.14726 31.0146 5.14726C45.5469 5.14726 57.3758 16.9757 57.3758 31.508C57.3758 46.0403 45.5469 57.8692 31.0146 57.8692Z" fill="#FFFEFE"/>
</svg>
