<svg width="12" height="14" viewBox="0 0 12 14" fill="none" xmlns="http://www.w3.org/2000/svg">
<path d="M0.804688 5.5C0.626953 5.5 0.5 5.65234 0.5 5.80469V12.4062C0.5 13.0918 1.0332 13.625 1.71875 13.625H10.6562C11.3164 13.625 11.875 13.0918 11.875 12.4062V5.80469C11.875 5.65234 11.7227 5.5 11.5703 5.5H0.804688ZM11.875 4.38281V3.46875C11.875 2.80859 11.3164 2.25 10.6562 2.25H9.4375V0.929688C9.4375 0.777344 9.28516 0.625 9.13281 0.625H8.11719C7.93945 0.625 7.8125 0.777344 7.8125 0.929688V2.25H4.5625V0.929688C4.5625 0.777344 4.41016 0.625 4.25781 0.625H3.24219C3.06445 0.625 2.9375 0.777344 2.9375 0.929688V2.25H1.71875C1.0332 2.25 0.5 2.80859 0.5 3.46875V4.38281C0.5 4.56055 0.626953 4.6875 0.804688 4.6875H11.5703C11.7227 4.6875 11.875 4.56055 11.875 4.38281Z" fill="#4C5A66"/>
</svg>
