<svg width="18" height="17" viewBox="0 0 18 17" fill="none" xmlns="http://www.w3.org/2000/svg">
<g clip-path="url(#clip0_703_5368)">
<path fill-rule="evenodd" clip-rule="evenodd" d="M16.8192 4.18077C16.8765 4.23793 16.922 4.30583 16.953 4.38058C16.984 4.45534 17 4.53548 17 4.61641C17 4.69735 16.984 4.77749 16.953 4.85224C16.922 4.927 16.8765 4.9949 16.8192 5.05205L9.43548 12.4358C9.37832 12.4931 9.31042 12.5386 9.23567 12.5696C9.16091 12.6006 9.08077 12.6166 8.99984 12.6166C8.9189 12.6166 8.83876 12.6006 8.76401 12.5696C8.68926 12.5386 8.62135 12.4931 8.5642 12.4358L1.18045 5.05205C1.06491 4.93651 1 4.77981 1 4.61641C1 4.45301 1.06491 4.29631 1.18045 4.18077C1.29599 4.06523 1.45269 4.00032 1.61609 4.00032C1.77949 4.00032 1.93619 4.06523 2.05173 4.18077L8.99984 11.1301L15.9479 4.18077C16.0051 4.12347 16.073 4.07801 16.1478 4.04699C16.2225 4.01597 16.3027 4 16.3836 4C16.4645 4 16.5447 4.01597 16.6194 4.04699C16.6942 4.07801 16.7621 4.12347 16.8192 4.18077Z" fill="#FFFEFE"/>
</g>
<defs>
<clipPath id="clip0_703_5368">
<rect width="8.61657" height="16" fill="white" transform="translate(17 4) rotate(90)"/>
</clipPath>
</defs>
</svg>
